Coordinates
version=1
nRows=22
nColumns=24
inDegrees=yes

Units are S.I. units (second, meters, Newtons, ...)
Angles are in degrees.

endheader
time	pelvis_tilt	pelvis_list	pelvis_rotation	pelvis_tx	pelvis_ty	pelvis_tz	hip_flexion_r	hip_adduction_r	hip_rotation_r	knee_angle_r	ankle_angle_r	subtalar_angle_r	mtp_angle_r	hip_flexion_l	hip_adduction_l	hip_rotation_l	knee_angle_l	ankle_angle_l	subtalar_angle_l	mtp_angle_l	lumbar_extension	lumbar_bending	lumbar_rotation
      4.84000000	     64.04704366	    -15.25355356	      5.29725839	      0.53678077	      0.95196850	     -0.23431577	     -0.27244021	    -11.06544426	    -19.83588005	    -62.22548096	    -17.12803772	      0.00000000	      0.00000000	     22.91247528	    -12.76868970	     15.16011148	    -14.12230012	    -36.01196944	      0.00000000	      0.00000000	      0.00000000	      0.00000000	      0.00000000
      4.85000000	     64.06079310	    -15.25962480	      5.31117653	      0.53676982	      0.95195746	     -0.23431789	     -0.27890467	    -11.05064787	    -19.83487402	    -62.18857387	    -17.13222626	      0.00000000	      0.00000000	     22.92093960	    -12.77745957	     15.14144607	    -14.10876445	    -36.01560264	      0.00000000	      0.00000000	      0.00000000	      0.00000000	      0.00000000
      4.86000000	     64.07283439	    -15.26573106	      5.32475491	      0.53675821	      0.95192750	     -0.23432831	     -0.27963121	    -11.04041690	    -19.83750330	    -62.15766074	    -17.13408025	      0.00000000	      0.00000000	     22.93483265	    -12.78213317	     15.12896269	    -14.10067891	    -36.02708629	      0.00000000	      0.00000000	      0.00000000	      0.00000000	      0.00000000
      4.87000000	     64.08376494	    -15.27150678	      5.33824222	      0.53674233	      0.95187524	     -0.23435646	     -0.27558086	    -11.03413720	    -19.84512262	    -62.13113092	    -17.13498405	      0.00000000	      0.00000000	     22.95284617	    -12.78209394	     15.12609457	    -14.09854429	    -36.04537737	      0.00000000	      0.00000000	      0.00000000	      0.00000000	      0.00000000
      4.88000000	     64.09400864	    -15.27680463	      5.35328293	      0.53672132	      0.95181766	     -0.23440737	     -0.26891635	    -11.02965273	    -19.85844730	    -62.10625436	    -17.13643550	      0.00000000	      0.00000000	     22.97395831	    -12.77764560	     15.13402439	    -14.10208064	    -36.06741330	      0.00000000	      0.00000000	      0.00000000	      0.00000000	      0.00000000
      4.89000000	     64.10388291	    -15.28246254	      5.37229534	      0.53669903	      0.95177388	     -0.23447676	     -0.26293094	    -11.02420573	    -19.87743556	    -62.07940363	    -17.13965145	      0.00000000	      0.00000000	     22.99746660	    -12.76980246	     15.15175208	    -14.11042356	    -36.08900756	      0.00000000	      0.00000000	      0.00000000	      0.00000000	      0.00000000
      4.90000000	     64.11374275	    -15.29030362	      5.39748941	      0.53668052	      0.95174534	     -0.23455224	     -0.26126078	    -11.01562177	    -19.90138752	    -62.04670806	    -17.14529043	      0.00000000	      0.00000000	     23.02271081	    -12.76010362	     15.17682318	    -14.12254949	    -36.10615489	      0.00000000	      0.00000000	      0.00000000	      0.00000000	      0.00000000
      4.91000000	     64.12425361	    -15.30182609	      5.42994145	      0.53666773	      0.95172178	     -0.23462798	     -0.26684016	    -11.00260860	    -19.92934743	    -62.00518170	    -17.15337643	      0.00000000	      0.00000000	     23.04902905	    -12.75044881	     15.20622649	    -14.13755564	    -36.11616515	      0.00000000	      0.00000000	      0.00000000	      0.00000000	      0.00000000
      4.92000000	     64.13639253	    -15.31702550	      5.46938402	      0.53665906	      0.95170035	     -0.23471199	     -0.28107741	    -10.98457891	    -19.96036385	    -61.95377740	    -17.16336035	      0.00000000	      0.00000000	     23.07588449	    -12.74268822	     15.23705164	    -14.15472371	    -36.11816266	      0.00000000	      0.00000000	      0.00000000	      0.00000000	      0.00000000
      4.93000000	     64.15103817	    -15.33479205	      5.51468130	      0.53665097	      0.95168627	     -0.23481117	     -0.30351045	    -10.96190796	    -19.99327993	    -61.89371944	    -17.17421419	      0.00000000	      0.00000000	     23.10294685	    -12.73779615	     15.26680938	    -14.17343151	    -36.11283950	      0.00000000	      0.00000000	      0.00000000	      0.00000000	      0.00000000
      4.94000000	     64.16861306	    -15.35396642	      5.56419671	      0.53664098	      0.95167870	     -0.23492183	     -0.33190530	    -10.93609565	    -20.02649438	    -61.82806080	    -17.18451308	      0.00000000	      0.00000000	     23.13021746	    -12.73499190	     15.29353209	    -14.19292108	    -36.10171619	      0.00000000	      0.00000000	      0.00000000	      0.00000000	      0.00000000
      4.95000000	     64.18883223	    -15.37356649	      5.61598659	      0.53662771	      0.95166420	     -0.23503774	     -0.36276747	    -10.90934462	    -20.05806232	    -61.76074671	    -17.19251133	      0.00000000	      0.00000000	     23.15813827	    -12.73188503	     15.31581243	    -14.21214698	    -36.08634420	      0.00000000	      0.00000000	      0.00000000	      0.00000000	      0.00000000
      4.96000000	     64.21044159	    -15.39212533	      5.66818497	      0.53660683	      0.95163205	     -0.23515511	     -0.39221483	    -10.88389396	    -20.08612228	    -61.69555922	    -17.19628257	      0.00000000	      0.00000000	     23.18746589	    -12.72605719	     15.33279447	    -14.22995138	    -36.06778974	      0.00000000	      0.00000000	      0.00000000	      0.00000000	      0.00000000
      4.97000000	     64.23134594	    -15.40750477	      5.71920123	      0.53657536	      0.95159164	     -0.23526829	     -0.41695983	    -10.86148433	    -20.10953362	    -61.63526256	    -17.19401824	      0.00000000	      0.00000000	     23.21891841	    -12.71657363	     15.34399613	    -14.24544176	    -36.04651809	      0.00000000	      0.00000000	      0.00000000	      0.00000000	      0.00000000
      4.98000000	     64.24916555	    -15.41802359	      5.76737937	      0.53654034	      0.95156048	     -0.23537017	     -0.43506656	    -10.84291974	    -20.12848280	    -61.58118125	    -17.18452011	      0.00000000	      0.00000000	     23.25270488	    -12.70381058	     15.34891089	    -14.25834434	    -36.02262658	      0.00000000	      0.00000000	      0.00000000	      0.00000000	      0.00000000
      4.99000000	     64.26186366	    -15.42375460	      5.81073657	      0.53651359	      0.95154056	     -0.23546483	     -0.44608823	    -10.82762557	    -20.14469960	    -61.53329737	    -17.16777896	      0.00000000	      0.00000000	     23.28819959	    -12.68826236	     15.34651399	    -14.26924542	    -35.99624667	      0.00000000	      0.00000000	      0.00000000	      0.00000000	      0.00000000
      5.00000000	     64.26849598	    -15.42686123	      5.84751967	      0.53649838	      0.95152284	     -0.23556877	     -0.45045158	    -10.81394091	    -20.16089619	    -61.49054736	    -17.14531872	      0.00000000	      0.00000000	     23.32426923	    -12.67018300	     15.33501793	    -14.27951980	    -35.96790837	      0.00000000	      0.00000000	      0.00000000	      0.00000000	      0.00000000
      5.01000000	     64.26970174	    -15.43077139	      5.87713701	      0.53648923	      0.95150951	     -0.23568323	     -0.44877315	    -10.80030565	    -20.17951150	    -61.45117020	    -17.12001293	      0.00000000	      0.00000000	     23.36021949	    -12.65055075	     15.31222766	    -14.29082503	    -35.93872343	      0.00000000	      0.00000000	      0.00000000	      0.00000000	      0.00000000
      5.02000000	     64.26704663	    -15.43818351	      5.90007224	      0.53648281	      0.95151183	     -0.23578123	     -0.44186618	    -10.78569068	    -20.20161837	    -61.41348235	    -17.09541414	      0.00000000	      0.00000000	     23.39645544	    -12.63193479	     15.27640049	    -14.30453546	    -35.91032994	      0.00000000	      0.00000000	      0.00000000	      0.00000000	      0.00000000
      5.03000000	     64.26178553	    -15.44934087	      5.91657879	      0.53648080	      0.95153222	     -0.23584131	     -0.43083065	    -10.76883593	    -20.22659468	    -61.37695478	    -17.07481419	      0.00000000	      0.00000000	     23.43422972	    -12.61780845	     15.22710391	    -14.32150835	    -35.88463379	      0.00000000	      0.00000000	      0.00000000	      0.00000000	      0.00000000
      5.04000000	     64.25452461	    -15.46293633	      5.92591600	      0.53648319	      0.95156449	     -0.23587561	     -0.41628428	    -10.74850895	    -20.25199029	    -61.34251385	    -17.06028934	      0.00000000	      0.00000000	     23.47485813	    -12.61074589	     15.16563755	    -14.34209014	    -35.86342834	      0.00000000	      0.00000000	      0.00000000	      0.00000000	      0.00000000
      5.05000000	     64.24566321	    -15.47873893	      5.92711307	      0.53648856	      0.95159938	     -0.23590492	     -0.39732972	    -10.72526363	    -20.27340933	    -61.31175926	    -17.05212437	      0.00000000	      0.00000000	     23.51897829	    -12.61140200	     15.09487079	    -14.36622124	    -35.84800934	      0.00000000	      0.00000000	      0.00000000	      0.00000000	      0.00000000
